<?xml version="1.0" encoding="UTF-8" standalone="no"?>
<!DOCTYPE svg PUBLIC "-//W3C//DTD SVG 1.1//EN" "http://www.w3.org/Graphics/SVG/1.1/DTD/svg11.dtd">
<svg width="100%" height="100%" viewBox="0 0 640 655" version="1.1" xmlns="http://www.w3.org/2000/svg" xmlns:xlink="http://www.w3.org/1999/xlink" xml:space="preserve" xmlns:serif="http://www.serif.com/" style="fill-rule:evenodd;clip-rule:evenodd;stroke-linejoin:round;stroke-miterlimit:2;">
    <g transform="matrix(1,0,0,1,-80.373867,-72.852235)">
        <g id="isotipo" transform="matrix(0.865008,0,0,0.865008,27.220341,58.809309)">
            <path d="M577.485,406.5C576.844,414.868 578.796,465.65 529.312,513.31C510.441,531.486 463.05,552.916 457.679,545.345C442.126,523.42 374.852,403.68 369.496,404.327C355.597,406.006 291.439,443.857 288.469,436.515C284.435,426.545 261.362,297.35 402.532,259.654C405.353,258.9 451.978,252.202 484.676,267.096C574.591,308.052 575.485,375.327 577.485,406.5Z" style="fill:url(#_Linear1);"/>
            <path d="M709.507,413.082C717.565,413.736 720.105,414.629 719.935,409.489C719.242,388.414 719.456,382.197 715.5,382.484C669.877,385.797 651.418,382.617 651.432,387.495C651.512,415.793 654.307,429.076 639.803,480.582C633.421,503.244 630.204,505.278 625.6,503.225C624.032,502.527 606.723,494.812 607.625,491.517C612.103,475.157 614.913,476.092 620.637,448.53C631.356,396.915 617.461,363.484 624.427,362.294C639.751,359.674 713.57,360.49 712.868,356.501C707.746,327.393 703.063,327.276 700.521,327.213C693.087,327.028 609.264,324.941 607.643,323.306C601.345,316.957 593.269,286.573 545.217,250.862C536.686,244.523 536.589,244.691 470.537,208.434C460.491,202.92 370.993,224.276 367.531,220.473C367.329,220.251 357.283,193.427 363.468,191.408C368.093,189.899 420.453,187.36 454.459,182.032C476.539,178.573 476.072,183.119 495.757,194.027C501.616,197.273 501.165,197.84 568.617,235.264C572.524,237.432 572.216,234.295 597.339,210.358C598.524,209.229 600.931,206.935 585.074,193.988C573.489,184.528 569.25,218.901 555.845,207.079C518.796,174.405 515.024,174.351 517.86,170.747C520.788,167.026 565.028,117.194 567.716,115.859C572.404,113.53 614.937,150.739 613.278,154.409C610.94,159.582 599.435,167.201 602.634,170.382C620.045,187.697 621.764,186.572 623.216,185.158C684.946,125.054 688.218,121.231 691.46,123.564C698.665,128.748 733.89,169.93 751.649,204.422C756.42,213.688 776.338,252.374 794.15,327.57C798.345,345.281 787.481,339.656 769.494,341.383C768.077,341.518 752.796,342.985 751.733,340.382C749.614,335.198 736.307,291.78 738.52,289.516C740.381,287.613 757.787,280.292 757.047,277.568C741.016,218.564 691.596,158.053 688.548,158.779C686.601,159.242 587.66,252.149 588.348,255.54C589.436,260.898 597.661,260.196 620.967,298.199C622.99,301.499 656.086,301.091 681.538,303.154C690.986,303.92 697.452,306.161 693.632,297.448C669.912,243.347 640.612,228.836 648.587,221.586C683.183,190.133 684.455,185.656 689.126,190.836C720.082,225.17 721.345,226.868 718.461,229.465C704.263,242.247 701.814,239.451 700.773,238.262C691.945,228.181 684.644,215.813 679.645,220.653C672.436,227.63 678.221,229.188 687.375,242.585C744.123,325.647 727.121,357.377 738.489,356.932C795.72,354.695 797.837,354.137 798.623,358.472C803.5,385.378 800.831,483.643 763.598,558.556C761.555,562.666 759.264,562.057 709.434,539.644C696.257,533.717 704.715,529.045 711.171,497.426C713.897,484.073 722.058,436.735 716.501,436.492C705.339,436.003 698.422,434.943 696.85,442.575C691.432,468.881 676.067,523.745 669.485,522.786C668.021,522.573 650.939,515.254 650.415,512.528C648.881,504.544 669.176,473.307 674.781,421.537C675.472,415.148 676.35,414.275 676.802,413.825C678.297,412.339 690.545,412.914 709.507,413.082ZM757.489,381.116C746.873,381.655 741.163,376.901 741.678,387.491C747.307,503.313 722.094,517.087 733.721,522.097C734.974,522.637 749.252,528.79 750.23,526.362C776.044,462.313 778.177,380.396 772.517,380.313C771.313,380.295 769.985,380.276 757.489,381.116Z" style="fill:url(#_Linear2);"/>
            <path d="M485.489,576.057C501.769,574.575 510.329,574.67 512.492,574.694C517.548,574.75 528.623,598.105 527.551,600.527C526.408,603.109 456.673,640.122 455.535,640.594C451.292,642.355 450.686,636.176 368.956,540.087C347.403,514.747 344.432,507.975 339.903,511.953C335.377,515.928 335.617,516.005 331.074,520.009C232.27,607.103 232.497,608.468 221.387,611.038C183.328,619.841 183.391,619.456 145.542,628.786C137.459,630.778 94.789,554.954 94.735,547.52C94.684,540.596 360.533,419.989 364.5,419.503C368.093,419.064 417.42,505.223 454.991,566.179C464.387,581.425 467.733,578.041 485.489,576.057ZM174.624,599.901C176.292,599.463 195.009,594.544 195.461,594.408C200.36,592.936 196.498,590.5 170.223,535.659C168.513,532.089 166.273,532.307 124.406,554.344C120.972,556.151 120.472,558.768 146.29,597.636C153.687,608.772 156.559,604.079 174.624,599.901ZM503.217,594.275C503.202,591.173 501.126,593.055 464.505,596.583C446.905,598.278 448.45,592.042 441.01,579.789C412.257,532.436 412.837,532.361 384.147,484.725C376.261,471.63 373.76,483.281 362.113,493.055C357.282,497.109 358.863,498.357 362.915,503.132C415.32,564.883 456.032,616.054 456.979,617.013C458.23,618.278 458.811,617.611 503.217,594.275ZM197.434,517.362C196.316,517.878 186.945,520.581 188.659,524.448C195.42,539.697 216.842,585.489 219.426,586.61C220.338,587.006 221.289,587.569 302.89,517.939C331.609,493.434 331.618,492.716 331.131,491.596C318.824,463.281 317.941,462.597 315.47,463.351C310.792,464.78 204.881,513.827 197.434,517.362ZM342.495,450.49C332.877,454.732 337.53,457.83 341.875,467.317C342.273,468.186 346.783,478.035 348.445,477.31C348.529,477.273 370.202,461.52 368.345,457.566C367.936,456.694 360.786,444.87 358.566,444.193C356.625,443.601 356.703,444.396 342.495,450.49Z" style="fill:url(#_Linear3);"/>
            <path d="M112.472,452.075C126.211,450.721 126.151,450.46 127.29,450.919C130.097,452.052 137.773,496.499 138.466,500.506C139.731,507.831 137.373,508.717 113.419,514.09C86.712,520.081 83.574,523.39 80.897,515.379C68.435,478.078 66.479,445.177 63.376,424.513C55.78,373.931 72.304,295.187 83.919,266.7C86.072,261.421 91.645,266.561 173.713,308.104C179.284,310.924 184.765,294.561 185.314,293.405C192.361,278.592 177.653,276.023 178.42,260.497C178.754,253.751 205.36,205.656 205.874,204.874C208.206,201.324 230.281,196.71 232.471,196.253C237.075,195.29 276.958,217.685 277.191,217.863C279.573,219.68 284.033,241.078 283.375,244.475C280.747,258.043 274.522,247.799 237.4,230.736C226.954,225.934 221.905,243.596 220.451,246.473C203.486,280.027 202.76,282.044 207.557,285.404C213.807,289.782 228.146,250.689 234.209,242.244C236.063,239.662 237.265,240.233 270.298,258.862C278.075,263.247 270.453,271.861 264.337,285.425C258.186,299.066 259.411,300.925 245.714,306.974C234.399,311.971 233.957,309.447 222.579,304.263C221.051,303.567 219.109,303.003 210.841,321.664C209.147,325.488 210.375,326.542 231.665,338.156C243.034,344.358 247.907,343.825 244.303,356.434C227.081,416.68 245.824,450.704 244.783,455.573C244.044,459.027 160.876,494.396 159.503,494.544C152.498,495.301 137.427,417.93 144.132,373.437C145.301,365.68 121.591,361.112 121.37,361.182C118.144,362.207 116.22,402.825 116.36,404.536C116.554,406.908 130.075,406.198 131.379,406.753C133.56,407.681 133.449,422.148 133.439,423.498C133.397,428.976 98.314,424.99 98.279,424.973C92.769,422.319 100.811,334.938 106.514,334.975C108.085,334.985 162.475,354.877 165.57,356.405C169.278,358.236 156.164,398.943 171.493,464.503C172.375,468.276 174.464,465.603 216.252,446.004C221.871,443.369 212.016,425.092 215.543,387.504C218.084,360.43 223.657,357.1 213.578,352.339C189.801,341.105 109.62,297.191 101.581,294.203C98.262,292.969 96.385,294.605 88.571,336.512C78.573,390.132 86.548,451.539 87.091,452.688C87.959,454.525 88.66,456.009 112.472,452.075ZM99.458,498.05C104.848,497.068 104.679,497.04 113.449,495.23C120.154,493.845 117.351,490.842 114.605,478.479C111.723,465.504 106.559,471.491 93.49,473.435C87.613,474.31 90.766,476.799 92.092,482.581C94.822,494.483 92.779,497.105 99.458,498.05Z" style="fill:url(#_Linear4);"/>
            <path d="M394.518,771.106C250.846,757.951 155.781,649.903 158.678,645.613C161.779,641.02 233.593,625.153 234.515,625.152C237.141,625.148 282.838,681.375 339.409,705.699C433.476,746.143 473.626,721.337 485.738,729.229C486.611,729.798 494.303,762.139 493.758,764.563C492.634,769.565 437.283,775.494 394.518,771.106Z" style="fill:url(#_Linear5);"/>
            <path d="M330.391,30.186C334.159,29.619 334.219,29.206 335.14,29.955C337.272,31.688 342.888,62.549 342.888,62.551C342.897,64.58 330.533,68.796 329.395,69.184C264.621,91.273 209.724,144.301 183.498,195.499C147.309,266.149 160.221,284.295 146.775,277.02C100.786,252.136 100.43,252.778 96.794,250.053C95.292,248.927 89.385,244.498 99.985,226.799C119.918,193.513 169.521,75.568 330.391,30.186Z" style="fill:url(#_Linear6);"/>
            <path d="M483.523,19.062C500.268,21.876 528.853,23.205 590.313,50.93C639.332,73.043 677.039,108.085 676.128,110.398C675.625,111.672 637.14,153.285 632.729,150.004C620.248,140.719 559.641,48.362 401.514,54.976C383.711,55.721 377.936,62.201 375.217,48.568C370.541,25.121 367.887,21.426 376.558,19.796C414.347,12.692 475.002,18.277 483.523,19.062Z" style="fill:url(#_Linear7);"/>
            <path d="M531.444,758.202C524.443,758.063 525.91,752.044 521.382,734.529C520.501,731.121 515.528,721.2 522.517,718.537C525.654,717.342 637.558,686.124 692.332,561.427C696.654,551.59 705.312,558.644 726.404,567.721C744.493,575.507 755.872,575.427 748.256,588.369C667.549,725.522 533.619,757.53 531.444,758.202Z" style="fill:url(#_Linear8);"/>
            <path d="M647.497,532.505C653.529,536.583 658.264,538.086 650.33,547.358C646.054,552.355 597.525,609.066 589.856,603.034C589.509,602.761 558.347,565.121 558.668,561.518C559.121,556.434 566.023,561.301 599.688,512.649C602.72,508.268 622.034,518.731 619.309,524.403C611.83,539.973 592.365,560.782 589.678,563.655C587.164,566.343 591.774,575.732 596.276,571.274C599.171,568.409 603.037,564.582 632.084,535.086C638.459,528.612 639.625,527.932 647.497,532.505Z" style="fill:url(#_Linear9);"/>
            <path d="M553.501,103.959C554.023,104.074 560.064,105.414 559.211,107.424C558.925,108.099 553.051,115.278 547.455,121.456C509.286,163.596 509.563,165.595 506.562,164.317C498.483,160.877 502.543,158.154 501.349,146.511C499.881,132.19 503.662,132.853 523.202,111.213C534.475,98.728 536.825,103.44 553.501,103.959Z" style="fill:url(#_Linear10);"/>
        </g>
    </g>
    <defs>
        <linearGradient id="_Linear1" x1="0" y1="0" x2="1" y2="0" gradientUnits="userSpaceOnUse" gradientTransform="matrix(622.975882,357.257598,-357.257598,622.975882,142.987902,214.536406)"><stop offset="0" style="stop-color:rgb(218,18,26);stop-opacity:1"/><stop offset="1" style="stop-color:rgb(111,0,0);stop-opacity:1"/></linearGradient>
        <linearGradient id="_Linear2" x1="0" y1="0" x2="1" y2="0" gradientUnits="userSpaceOnUse" gradientTransform="matrix(622.975882,357.257598,-357.257598,622.975882,142.987902,214.536406)"><stop offset="0" style="stop-color:rgb(218,18,26);stop-opacity:1"/><stop offset="1" style="stop-color:rgb(111,0,0);stop-opacity:1"/></linearGradient>
        <linearGradient id="_Linear3" x1="0" y1="0" x2="1" y2="0" gradientUnits="userSpaceOnUse" gradientTransform="matrix(622.975882,357.257598,-357.257598,622.975882,142.987902,214.536406)"><stop offset="0" style="stop-color:rgb(218,18,26);stop-opacity:1"/><stop offset="1" style="stop-color:rgb(111,0,0);stop-opacity:1"/></linearGradient>
        <linearGradient id="_Linear4" x1="0" y1="0" x2="1" y2="0" gradientUnits="userSpaceOnUse" gradientTransform="matrix(622.975882,357.257598,-357.257598,622.975882,142.987902,214.536406)"><stop offset="0" style="stop-color:rgb(218,18,26);stop-opacity:1"/><stop offset="1" style="stop-color:rgb(111,0,0);stop-opacity:1"/></linearGradient>
        <linearGradient id="_Linear5" x1="0" y1="0" x2="1" y2="0" gradientUnits="userSpaceOnUse" gradientTransform="matrix(622.975882,357.257598,-357.257598,622.975882,142.987902,214.536406)"><stop offset="0" style="stop-color:rgb(218,18,26);stop-opacity:1"/><stop offset="1" style="stop-color:rgb(111,0,0);stop-opacity:1"/></linearGradient>
        <linearGradient id="_Linear6" x1="0" y1="0" x2="1" y2="0" gradientUnits="userSpaceOnUse" gradientTransform="matrix(622.975882,357.257598,-357.257598,622.975882,142.987902,214.536406)"><stop offset="0" style="stop-color:rgb(218,18,26);stop-opacity:1"/><stop offset="1" style="stop-color:rgb(111,0,0);stop-opacity:1"/></linearGradient>
        <linearGradient id="_Linear7" x1="0" y1="0" x2="1" y2="0" gradientUnits="userSpaceOnUse" gradientTransform="matrix(622.975882,357.257598,-357.257598,622.975882,142.987902,214.536406)"><stop offset="0" style="stop-color:rgb(218,18,26);stop-opacity:1"/><stop offset="1" style="stop-color:rgb(111,0,0);stop-opacity:1"/></linearGradient>
        <linearGradient id="_Linear8" x1="0" y1="0" x2="1" y2="0" gradientUnits="userSpaceOnUse" gradientTransform="matrix(622.975882,357.257598,-357.257598,622.975882,142.987902,214.536406)"><stop offset="0" style="stop-color:rgb(218,18,26);stop-opacity:1"/><stop offset="1" style="stop-color:rgb(111,0,0);stop-opacity:1"/></linearGradient>
        <linearGradient id="_Linear9" x1="0" y1="0" x2="1" y2="0" gradientUnits="userSpaceOnUse" gradientTransform="matrix(622.975882,357.257598,-357.257598,622.975882,142.987902,214.536406)"><stop offset="0" style="stop-color:rgb(218,18,26);stop-opacity:1"/><stop offset="1" style="stop-color:rgb(111,0,0);stop-opacity:1"/></linearGradient>
        <linearGradient id="_Linear10" x1="0" y1="0" x2="1" y2="0" gradientUnits="userSpaceOnUse" gradientTransform="matrix(622.975882,357.257598,-357.257598,622.975882,142.987902,214.536406)"><stop offset="0" style="stop-color:rgb(218,18,26);stop-opacity:1"/><stop offset="1" style="stop-color:rgb(111,0,0);stop-opacity:1"/></linearGradient>
    </defs>
</svg>
