<?xml version="1.0" encoding="UTF-8" standalone="no"?>
<!DOCTYPE svg PUBLIC "-//W3C//DTD SVG 1.1//EN" "http://www.w3.org/Graphics/SVG/1.1/DTD/svg11.dtd">
<svg width="100%" height="100%" viewBox="0 0 682 253" version="1.1" xmlns="http://www.w3.org/2000/svg" xmlns:xlink="http://www.w3.org/1999/xlink" xml:space="preserve" xmlns:serif="http://www.serif.com/" style="fill-rule:evenodd;clip-rule:evenodd;stroke-linejoin:round;stroke-miterlimit:2;">
    <g transform="matrix(1,0,0,1,-2607.081997,-273.722961)">
        <g id="logotipo" transform="matrix(0.668539,0,0,0.668539,2605.602723,272.220461)">
            <path d="M583.215,341.5C583.215,378.158 583.605,379.235 581.514,379.587C581.485,379.592 531.516,379.789 530.512,379.469C529.15,379.035 529.299,378.362 529.299,173.5C529.299,154.513 528.558,150.593 531.503,150.544C532.052,150.535 756.187,150.52 756.495,150.551C758.813,150.785 758.475,152.079 758.475,209.5C758.475,334.749 758.59,335.202 757.594,335.651C755.327,336.674 716.309,334.974 715.714,336.569C715.049,338.351 757.805,377.562 756.35,379.365C756.085,379.693 693.204,380.066 691.751,379.113C688.57,377.027 651.236,336.525 648.583,336.128C646.942,335.882 601.205,336.057 590.5,336.008C585.489,335.984 585.514,335.752 584.353,336.179C583.104,336.638 583.633,337.026 583.215,341.5ZM583.215,230.5C583.215,206.851 582.231,204.607 586.5,204.521C593.813,204.373 686.78,204.508 695.5,204.521C701.84,204.53 704.48,203.14 704.48,209.5C704.48,280.731 704.618,281.193 703.59,281.649C702.366,282.192 584.912,281.954 584.383,281.778C582.997,281.316 583.215,280.659 583.215,230.5Z" style="fill:url(#_Linear1);"/>
            <path d="M231.718,238.5C231.718,334.697 231.87,335.294 230.62,335.748C228.029,336.69 58.118,334.804 56.918,336.757C55.615,338.878 58.073,378.542 55.467,379.423C55.05,379.564 3.994,380.152 2.923,379.094C2.118,378.298 1.779,152.2 3.098,151.025C3.715,150.475 3.853,150.535 223.5,150.535C225.715,150.535 231.708,149.127 231.717,153.497C231.717,181.832 231.718,210.166 231.718,238.5ZM56.591,213.5C56.754,206.186 56.542,206.195 56.767,205.604C57.238,204.366 57.821,204.521 146.5,204.521C175.514,204.521 177.597,203.724 177.605,207.499C177.618,213.339 177.758,278.4 177.519,280.505C177.28,282.614 167.835,281.931 164.5,281.931C58.192,281.931 58.144,281.971 57.417,281.632C56.46,281.187 56.591,280.763 56.591,213.5Z" style="fill:url(#_Linear2);"/>
            <path d="M319.933,210.5C319.933,234.794 319.461,237.97 321.552,238.12C326.29,238.461 493.185,237.542 494.389,238.62C495.58,239.688 494.663,263.874 495.031,289.491C495.077,292.669 493.222,292.132 450.5,292.132C321.215,292.132 320.505,291.974 320.108,293.35C319.439,295.666 320.142,295.723 319.936,323.484C319.915,326.277 321.586,325.805 364.5,325.805C493.705,325.805 493.912,325.723 494.583,326.433C495.347,327.239 494.832,359.765 494.967,375.5C495.022,381.904 491.932,379.623 485.5,379.623C413.165,379.626 340.831,379.629 268.496,379.631C265.117,379.614 265.831,377.701 265.831,348.5C265.831,151.84 265.726,151.501 266.683,150.829C267.171,150.486 267.247,150.537 485.5,150.535C487.477,150.535 494.956,149.01 494.967,153.493C494.976,157.411 495.075,200.804 495.022,202.463C494.943,204.897 493.492,204.521 442.5,204.521C321.082,204.521 320.654,204.412 320.243,205.345C320.076,205.723 320.22,205.725 319.933,210.5Z" style="fill:url(#_Linear3);"/>
            <path d="M967.836,167.5C967.836,161.742 967.785,151.998 967.955,151.648C968.493,150.535 976.731,150.535 977.5,150.535C1020.39,150.534 1021.555,150.153 1021.922,152.439C1022.302,154.814 1021.97,358.58 1021.941,376.505C1021.936,379.394 1021.373,379.63 1018.501,379.628C794.98,379.507 794.384,380.364 793.127,378.735C792.486,377.904 792.849,151.827 792.938,151.646C794.022,149.433 845.68,150.633 846.101,150.985C847.984,152.558 845.337,323.704 847.51,325.483C848.318,326.144 966.313,325.744 966.563,325.697C967.998,325.432 967.836,324.615 967.836,167.5Z" style="fill:url(#_Linear4);"/>
            <g transform="matrix(1.00705,0,0,1.00705,-3.719451,-0.015845)">
                <path d="M5.908,25.5C5.908,8.787 5.768,4.359 6.285,3.345C6.816,2.305 16.256,2.656 18.5,2.656C103.639,2.656 103.692,2.621 104.242,2.917C105.079,3.367 105.079,11.73 105.079,12.5C105.081,100.645 105.288,101.7 103.581,101.848C102.651,101.929 7.752,101.925 7.424,101.856C5.68,101.49 5.908,100.57 5.908,25.5ZM81.774,61.5C81.774,71.224 82.775,78.287 79.5,78.496C79.311,78.508 31.673,78.507 31.5,78.496C28.777,78.322 29.233,76.817 29.233,33.5C29.233,30.732 28.424,26.128 31.46,26.068C35.447,25.99 79.97,25.12 81.307,26.656C81.887,27.322 81.774,27.41 81.774,61.5Z" style="fill:white;fill-opacity:1;"/>
            </g>
            <g transform="matrix(1.00705,0,0,1.00705,-3.719451,-0.015845)">
                <path d="M582.5,101.899C581.145,101.798 579.78,101.958 578.425,101.857C576.541,101.717 576.786,100.563 576.786,22.5C576.786,6.847 575.793,2.673 579.504,2.658C587.1,2.626 670.212,2.278 674.464,2.702C676.356,2.89 676.117,4.023 676.117,88.5C676.117,94.459 677.314,101.868 673.518,101.896C654.286,102.04 652.751,102.283 652.729,99.491C652.67,91.852 653.836,83.347 650.551,83.039C639.922,82.041 606.361,82.876 602.52,82.971C599.014,83.058 600.213,92.251 600.165,99.488C600.142,102.903 593.396,101.899 582.5,101.899ZM608.5,26.06C624.654,26.06 649.999,26.058 650.544,26.07C653.071,26.125 652.726,28.452 652.726,29.499C652.739,58.487 653.021,59.052 651.518,59.547C650.621,59.841 602.114,59.773 601.472,59.585C599.161,58.906 599.881,57.861 600.167,29.498C600.223,23.926 602.914,26.167 608.5,26.06Z" style="fill:white;fill-opacity:0.99;"/>
            </g>
            <g transform="matrix(1.00705,0,0,1.00705,-3.719451,-0.015845)">
                <path d="M810.5,101.899C809.601,101.878 805.123,102.872 805.08,99.526C804.98,91.802 803.848,4.189 805.815,2.978C806.803,2.369 902.903,2.602 903.341,2.856C904.345,3.437 904.373,3.782 904.349,95.5C904.348,99.882 905.877,101.883 901.509,101.898C884.144,101.956 881.065,102.573 881.028,99.53C880.941,92.393 882.316,83.073 878.526,83.029C874.594,82.984 831.171,82.489 829.383,83.306C827.704,84.074 828.76,98.81 828.397,100.476C827.959,102.482 821.423,101.899 810.5,101.899ZM881.024,44.5C881.022,50.183 881.715,59.296 879.534,59.634C879.298,59.671 830.723,59.951 829.509,59.482C827.771,58.81 827.955,26.934 829.394,26.314C830.008,26.05 879.443,25.581 880.441,26.559C881.35,27.451 880.792,37.282 881.024,44.5Z" style="fill:white;fill-opacity:0.99;"/>
            </g>
            <g transform="matrix(1.00705,0,0,1.00705,-3.719451,-0.015845)">
                <path d="M277.5,101.899C276.891,101.878 272.269,102.893 272.232,99.514C272.147,91.833 271.192,5.21 272.509,3.505C273.775,1.867 408.2,2.579 408.822,3.123C409.431,3.655 409.562,3.77 409.531,96.5C409.531,96.631 410.352,101.802 407.55,101.882C387.173,102.46 386.517,102.274 386.216,100.59C385.646,97.396 386.947,27.943 385.487,26.515C385.141,26.177 353.183,25.032 352.852,27.59C352.396,31.129 353.394,100.08 352.289,101.315C351.763,101.904 330.02,103.076 329.365,100.537C328.693,97.937 330.346,28.099 328.441,26.593C326.561,25.108 326.342,25.814 298.495,26.071C297.268,26.082 295.732,26.041 295.715,28.508C295.225,99.736 296.747,101.823 293.539,101.888C293.036,101.899 278.783,101.899 277.5,101.899Z" style="fill:white;fill-opacity:1;"/>
            </g>
            <g transform="matrix(1.00705,0,0,1.00705,-3.719451,-0.015845)">
                <path d="M429.5,101.899C426.036,101.724 424.455,102.952 424.418,99.504C424.337,91.83 423.422,5.387 424.667,3.582C425.107,2.945 425.351,2.599 516.5,2.656C521.382,2.659 523.754,0.655 523.769,5.496C523.787,11.58 523.999,80.317 523.678,81.55C523.035,84.019 521.692,82.757 451.501,82.968C448.791,82.976 447.897,82.737 447.835,85.512C447.77,88.383 448.179,100.442 447.333,101.338C446.585,102.133 440.317,101.899 429.5,101.899ZM500.318,36.5C500.318,55.584 501.295,59.696 497.504,59.712C493.661,59.728 453.748,59.897 449.468,59.661C446.383,59.492 447.877,27.067 448.487,26.485C448.99,26.005 499.131,25.373 500.004,26.806C500.602,27.787 500.258,27.868 500.318,36.5Z" style="fill:white;fill-opacity:1;"/>
            </g>
            <g transform="matrix(1.00705,0,0,1.00705,-3.719451,-0.015845)">
                <path d="M995.09,72.5C994.926,65.503 995.331,65.302 994.476,64.526C993.409,63.558 930.299,64.306 921.518,64.075C918.064,63.984 919.181,55.718 919.181,53.5C919.181,3.999 918.924,3.196 920.565,2.746C920.912,2.65 1016.448,2.492 1017.367,2.831C1019.428,3.592 1018.353,24.885 1018.116,25.258C1017.016,26.988 955.678,25.647 944.433,26.085C941.329,26.206 942.674,39.383 943.04,39.85C944.576,41.812 1014.963,39.985 1017.363,40.847C1019.583,41.645 1018.277,100.927 1018.089,101.199C1017.23,102.441 920.461,102.181 919.674,101.335C918.765,100.356 919.153,80.086 919.417,79.458C920.285,77.395 980.646,79.009 993.492,78.456C996.039,78.346 994.78,77.095 995.09,72.5Z" style="fill:white;fill-opacity:1;"/>
            </g>
            <g transform="matrix(1.00705,0,0,1.00705,-3.719451,-0.015845)">
                <path d="M783.5,101.899C692.226,101.899 691.539,102.073 691.084,100.66C689.683,96.307 690.81,96.18 690.904,43.504C690.907,41.566 691.243,40.695 693.506,40.682C712.038,40.572 714.302,40.008 714.309,43.502C714.383,76.117 713.265,78.498 717.5,78.503C765.986,78.562 766.258,78.323 766.589,77.549C766.898,76.828 767.308,27.646 766.36,26.627C764.88,25.037 693.221,27.078 691.497,25.504C691.009,25.059 689.461,3.189 692.537,2.7C693.052,2.618 788.183,2.649 788.473,2.686C790.521,2.947 790.237,4.088 790.237,68.5L790.237,96.5C790.237,104.6 786.292,101.731 783.5,101.899Z" style="fill:white;fill-opacity:0.99;"/>
            </g>
            <g transform="matrix(1.00705,0,0,1.00705,-3.719451,-0.015845)">
                <path d="M119.917,61.5C119.917,4.962 119.901,5.036 120.009,4.414C120.302,2.716 120.896,2.139 141.479,2.678C145.111,2.774 143.122,5.166 143.324,75.503C143.336,79.705 148.835,78.503 161.5,78.503C217.663,78.503 219.074,78.157 219.172,80.525C220.021,101.097 219.281,101.753 217.572,101.861C216.629,101.92 122.709,101.923 121.423,101.855C119.592,101.758 119.917,100.645 119.917,61.5Z" style="fill:white;fill-opacity:1;"/>
            </g>
            <g transform="matrix(1.00705,0,0,1.00705,-3.719451,-0.015845)">
                <path d="M234.031,16.5C234.036,13.688 233.886,4.29 234.329,3.386C234.858,2.304 256.471,1.981 257.23,3.622C257.696,4.631 257.402,100.147 257.377,100.472C257.17,103.118 234.92,101.804 234.556,101.439C233.954,100.836 234.031,100.676 234.031,16.5Z" style="fill:white;fill-opacity:1;"/>
            </g>
            <g transform="matrix(1.00705,0,0,1.00705,-3.719451,-0.015845)">
                <path d="M544.5,101.899C540.575,101.687 538.612,103.443 538.574,99.497C538.501,91.828 537.678,6.08 538.79,3.63C539.353,2.39 561.783,1.273 561.912,4.431C561.965,5.718 561.929,96.978 561.939,97.5C561.947,97.861 562.019,101.43 560.596,101.809C560.113,101.938 550.435,101.899 544.5,101.899Z" style="fill:white;fill-opacity:1;"/>
            </g>
        </g>
    </g>
    <defs>
        <linearGradient id="_Linear1" x1="0" y1="0" x2="1" y2="0" gradientUnits="userSpaceOnUse" gradientTransform="matrix(632.042564,0,0,632.042564,160.712716,265.045544)"><stop offset="0" style="stop-color:rgb(218,18,26);stop-opacity:1"/><stop offset="1" style="stop-color:rgb(138,0,6);stop-opacity:1"/></linearGradient>
        <linearGradient id="_Linear2" x1="0" y1="0" x2="1" y2="0" gradientUnits="userSpaceOnUse" gradientTransform="matrix(632.042564,0,0,632.042564,160.712716,265.045544)"><stop offset="0" style="stop-color:rgb(218,18,26);stop-opacity:1"/><stop offset="1" style="stop-color:rgb(138,0,6);stop-opacity:1"/></linearGradient>
        <linearGradient id="_Linear3" x1="0" y1="0" x2="1" y2="0" gradientUnits="userSpaceOnUse" gradientTransform="matrix(632.042564,0,0,632.042564,160.712716,265.045544)"><stop offset="0" style="stop-color:rgb(218,18,26);stop-opacity:1"/><stop offset="1" style="stop-color:rgb(138,0,6);stop-opacity:1"/></linearGradient>
        <linearGradient id="_Linear4" x1="0" y1="0" x2="1" y2="0" gradientUnits="userSpaceOnUse" gradientTransform="matrix(632.042564,0,0,632.042564,160.712716,265.045544)"><stop offset="0" style="stop-color:rgb(218,18,26);stop-opacity:1"/><stop offset="1" style="stop-color:rgb(138,0,6);stop-opacity:1"/></linearGradient>
    </defs>
</svg>
