<?xml version="1.0" encoding="UTF-8" standalone="no"?>
<!DOCTYPE svg PUBLIC "-//W3C//DTD SVG 1.1//EN" "http://www.w3.org/Graphics/SVG/1.1/DTD/svg11.dtd">
<svg width="100%" height="100%" viewBox="0 0 682 213" version="1.1" xmlns="http://www.w3.org/2000/svg" xmlns:xlink="http://www.w3.org/1999/xlink" xml:space="preserve" xmlns:serif="http://www.serif.com/" style="fill-rule:evenodd;clip-rule:evenodd;stroke-linejoin:round;stroke-miterlimit:2;">
    <g transform="matrix(1,0,0,1,-1758.08187,-1143.740842)">
        <g transform="matrix(1,0,0,1,-2201,850)">
            <g id="logotipo-color" transform="matrix(0.426103,0,0,0.426103,4205.397279,318.557907)">
                <path d="M583.215,341.5C583.215,378.158 583.605,379.235 581.514,379.587C581.485,379.592 531.516,379.789 530.512,379.469C529.15,379.035 529.299,378.362 529.299,173.5C529.299,154.513 528.558,150.593 531.503,150.544C532.052,150.535 756.187,150.52 756.495,150.551C758.813,150.785 758.475,152.079 758.475,209.5C758.475,334.749 758.59,335.202 757.594,335.651C755.327,336.674 716.309,334.974 715.714,336.569C715.049,338.351 757.805,377.562 756.35,379.365C756.085,379.693 693.204,380.066 691.751,379.113C688.57,377.027 651.236,336.525 648.583,336.128C646.942,335.882 601.205,336.057 590.5,336.008C585.489,335.984 585.514,335.752 584.353,336.179C583.104,336.638 583.633,337.026 583.215,341.5ZM583.215,230.5C583.215,206.851 582.231,204.607 586.5,204.521C593.813,204.373 686.78,204.508 695.5,204.521C701.84,204.53 704.48,203.14 704.48,209.5C704.48,280.731 704.618,281.193 703.59,281.649C702.366,282.192 584.912,281.954 584.383,281.778C582.997,281.316 583.215,280.659 583.215,230.5Z" style="fill:url(#_Linear1);"/>
                <path d="M231.718,238.5C231.718,334.697 231.87,335.294 230.62,335.748C228.029,336.69 58.118,334.804 56.918,336.757C55.615,338.878 58.073,378.542 55.467,379.423C55.05,379.564 3.994,380.152 2.923,379.094C2.118,378.298 1.779,152.2 3.098,151.025C3.715,150.475 3.853,150.535 223.5,150.535C225.715,150.535 231.708,149.127 231.717,153.497C231.717,181.832 231.718,210.166 231.718,238.5ZM56.591,213.5C56.754,206.186 56.542,206.195 56.767,205.604C57.238,204.366 57.821,204.521 146.5,204.521C175.514,204.521 177.597,203.724 177.605,207.499C177.618,213.339 177.758,278.4 177.519,280.505C177.28,282.614 167.835,281.931 164.5,281.931C58.192,281.931 58.144,281.971 57.417,281.632C56.46,281.187 56.591,280.763 56.591,213.5Z" style="fill:url(#_Linear2);"/>
                <path d="M319.933,210.5C319.933,234.794 319.461,237.97 321.552,238.12C326.29,238.461 493.185,237.542 494.389,238.62C495.58,239.688 494.663,263.874 495.031,289.491C495.077,292.669 493.222,292.132 450.5,292.132C321.215,292.132 320.505,291.974 320.108,293.35C319.439,295.666 320.142,295.723 319.936,323.484C319.915,326.277 321.586,325.805 364.5,325.805C493.705,325.805 493.912,325.723 494.583,326.433C495.347,327.239 494.832,359.765 494.967,375.5C495.022,381.904 491.932,379.623 485.5,379.623C413.165,379.626 340.831,379.629 268.496,379.631C265.117,379.614 265.831,377.701 265.831,348.5C265.831,151.84 265.726,151.501 266.683,150.829C267.171,150.486 267.247,150.537 485.5,150.535C487.477,150.535 494.956,149.01 494.967,153.493C494.976,157.411 495.075,200.804 495.022,202.463C494.943,204.897 493.492,204.521 442.5,204.521C321.082,204.521 320.654,204.412 320.243,205.345C320.076,205.723 320.22,205.725 319.933,210.5Z" style="fill:url(#_Linear3);"/>
                <path d="M967.836,167.5C967.836,161.742 967.785,151.998 967.955,151.648C968.493,150.535 976.731,150.535 977.5,150.535C1020.39,150.534 1021.555,150.153 1021.922,152.439C1022.302,154.814 1021.97,358.58 1021.941,376.505C1021.936,379.394 1021.373,379.63 1018.501,379.628C794.98,379.507 794.384,380.364 793.127,378.735C792.486,377.904 792.849,151.827 792.938,151.646C794.022,149.433 845.68,150.633 846.101,150.985C847.984,152.558 845.337,323.704 847.51,325.483C848.318,326.144 966.313,325.744 966.563,325.697C967.998,325.432 967.836,324.615 967.836,167.5Z" style="fill:url(#_Linear4);"/>
                <g transform="matrix(1.00705,0,0,1.00705,-3.719451,-0.015845)">
                    <path d="M5.908,25.5C5.908,8.787 5.768,4.359 6.285,3.345C6.816,2.305 16.256,2.656 18.5,2.656C103.639,2.656 103.692,2.621 104.242,2.917C105.079,3.367 105.079,11.73 105.079,12.5C105.081,100.645 105.288,101.7 103.581,101.848C102.651,101.929 7.752,101.925 7.424,101.856C5.68,101.49 5.908,100.57 5.908,25.5ZM81.774,61.5C81.774,71.224 82.775,78.287 79.5,78.496C79.311,78.508 31.673,78.507 31.5,78.496C28.777,78.322 29.233,76.817 29.233,33.5C29.233,30.732 28.424,26.128 31.46,26.068C35.447,25.99 79.97,25.12 81.307,26.656C81.887,27.322 81.774,27.41 81.774,61.5Z" style="fill:rgb(11,11,11);"/>
                </g>
                <g transform="matrix(1.00705,0,0,1.00705,-3.719451,-0.015845)">
                    <path d="M582.5,101.899C581.145,101.798 579.78,101.958 578.425,101.857C576.541,101.717 576.786,100.563 576.786,22.5C576.786,6.847 575.793,2.673 579.504,2.658C587.1,2.626 670.212,2.278 674.464,2.702C676.356,2.89 676.117,4.023 676.117,88.5C676.117,94.459 677.314,101.868 673.518,101.896C654.286,102.04 652.751,102.283 652.729,99.491C652.67,91.852 653.836,83.347 650.551,83.039C639.922,82.041 606.361,82.876 602.52,82.971C599.014,83.058 600.213,92.251 600.165,99.488C600.142,102.903 593.396,101.899 582.5,101.899ZM608.5,26.06C624.654,26.06 649.999,26.058 650.544,26.07C653.071,26.125 652.726,28.452 652.726,29.499C652.739,58.487 653.021,59.052 651.518,59.547C650.621,59.841 602.114,59.773 601.472,59.585C599.161,58.906 599.881,57.861 600.167,29.498C600.223,23.926 602.914,26.167 608.5,26.06Z" style="fill:rgb(11,11,11);fill-opacity:0.99;"/>
                </g>
                <g transform="matrix(1.00705,0,0,1.00705,-3.719451,-0.015845)">
                    <path d="M810.5,101.899C809.601,101.878 805.123,102.872 805.08,99.526C804.98,91.802 803.848,4.189 805.815,2.978C806.803,2.369 902.903,2.602 903.341,2.856C904.345,3.437 904.373,3.782 904.349,95.5C904.348,99.882 905.877,101.883 901.509,101.898C884.144,101.956 881.065,102.573 881.028,99.53C880.941,92.393 882.316,83.073 878.526,83.029C874.594,82.984 831.171,82.489 829.383,83.306C827.704,84.074 828.76,98.81 828.397,100.476C827.959,102.482 821.423,101.899 810.5,101.899ZM881.024,44.5C881.022,50.183 881.715,59.296 879.534,59.634C879.298,59.671 830.723,59.951 829.509,59.482C827.771,58.81 827.955,26.934 829.394,26.314C830.008,26.05 879.443,25.581 880.441,26.559C881.35,27.451 880.792,37.282 881.024,44.5Z" style="fill:rgb(11,11,11);fill-opacity:0.99;"/>
                </g>
                <g transform="matrix(1.00705,0,0,1.00705,-3.719451,-0.015845)">
                    <path d="M277.5,101.899C276.891,101.878 272.269,102.893 272.232,99.514C272.147,91.833 271.192,5.21 272.509,3.505C273.775,1.867 408.2,2.579 408.822,3.123C409.431,3.655 409.562,3.77 409.531,96.5C409.531,96.631 410.352,101.802 407.55,101.882C387.173,102.46 386.517,102.274 386.216,100.59C385.646,97.396 386.947,27.943 385.487,26.515C385.141,26.177 353.183,25.032 352.852,27.59C352.396,31.129 353.394,100.08 352.289,101.315C351.763,101.904 330.02,103.076 329.365,100.537C328.693,97.937 330.346,28.099 328.441,26.593C326.561,25.108 326.342,25.814 298.495,26.071C297.268,26.082 295.732,26.041 295.715,28.508C295.225,99.736 296.747,101.823 293.539,101.888C293.036,101.899 278.783,101.899 277.5,101.899Z" style="fill:rgb(11,11,11);"/>
                </g>
                <g transform="matrix(1.00705,0,0,1.00705,-3.719451,-0.015845)">
                    <path d="M429.5,101.899C426.036,101.724 424.455,102.952 424.418,99.504C424.337,91.83 423.422,5.387 424.667,3.582C425.107,2.945 425.351,2.599 516.5,2.656C521.382,2.659 523.754,0.655 523.769,5.496C523.787,11.58 523.999,80.317 523.678,81.55C523.035,84.019 521.692,82.757 451.501,82.968C448.791,82.976 447.897,82.737 447.835,85.512C447.77,88.383 448.179,100.442 447.333,101.338C446.585,102.133 440.317,101.899 429.5,101.899ZM500.318,36.5C500.318,55.584 501.295,59.696 497.504,59.712C493.661,59.728 453.748,59.897 449.468,59.661C446.383,59.492 447.877,27.067 448.487,26.485C448.99,26.005 499.131,25.373 500.004,26.806C500.602,27.787 500.258,27.868 500.318,36.5Z" style="fill:rgb(11,11,11);"/>
                </g>
                <g transform="matrix(1.00705,0,0,1.00705,-3.719451,-0.015845)">
                    <path d="M995.09,72.5C994.926,65.503 995.331,65.302 994.476,64.526C993.409,63.558 930.299,64.306 921.518,64.075C918.064,63.984 919.181,55.718 919.181,53.5C919.181,3.999 918.924,3.196 920.565,2.746C920.912,2.65 1016.448,2.492 1017.367,2.831C1019.428,3.592 1018.353,24.885 1018.116,25.258C1017.016,26.988 955.678,25.647 944.433,26.085C941.329,26.206 942.674,39.383 943.04,39.85C944.576,41.812 1014.963,39.985 1017.363,40.847C1019.583,41.645 1018.277,100.927 1018.089,101.199C1017.23,102.441 920.461,102.181 919.674,101.335C918.765,100.356 919.153,80.086 919.417,79.458C920.285,77.395 980.646,79.009 993.492,78.456C996.039,78.346 994.78,77.095 995.09,72.5Z" style="fill:rgb(11,11,11);"/>
                </g>
                <g transform="matrix(1.00705,0,0,1.00705,-3.719451,-0.015845)">
                    <path d="M783.5,101.899C692.226,101.899 691.539,102.073 691.084,100.66C689.683,96.307 690.81,96.18 690.904,43.504C690.907,41.566 691.243,40.695 693.506,40.682C712.038,40.572 714.302,40.008 714.309,43.502C714.383,76.117 713.265,78.498 717.5,78.503C765.986,78.562 766.258,78.323 766.589,77.549C766.898,76.828 767.308,27.646 766.36,26.627C764.88,25.037 693.221,27.078 691.497,25.504C691.009,25.059 689.461,3.189 692.537,2.7C693.052,2.618 788.183,2.649 788.473,2.686C790.521,2.947 790.237,4.088 790.237,68.5L790.237,96.5C790.237,104.6 786.292,101.731 783.5,101.899Z" style="fill:rgb(11,11,11);fill-opacity:0.99;"/>
                </g>
                <g transform="matrix(1.00705,0,0,1.00705,-3.719451,-0.015845)">
                    <path d="M119.917,61.5C119.917,4.962 119.901,5.036 120.009,4.414C120.302,2.716 120.896,2.139 141.479,2.678C145.111,2.774 143.122,5.166 143.324,75.503C143.336,79.705 148.835,78.503 161.5,78.503C217.663,78.503 219.074,78.157 219.172,80.525C220.021,101.097 219.281,101.753 217.572,101.861C216.629,101.92 122.709,101.923 121.423,101.855C119.592,101.758 119.917,100.645 119.917,61.5Z" style="fill:rgb(11,11,11);"/>
                </g>
                <g transform="matrix(1.00705,0,0,1.00705,-3.719451,-0.015845)">
                    <path d="M234.031,16.5C234.036,13.688 233.886,4.29 234.329,3.386C234.858,2.304 256.471,1.981 257.23,3.622C257.696,4.631 257.402,100.147 257.377,100.472C257.17,103.118 234.92,101.804 234.556,101.439C233.954,100.836 234.031,100.676 234.031,16.5Z" style="fill:rgb(11,11,11);"/>
                </g>
                <g transform="matrix(1.00705,0,0,1.00705,-3.719451,-0.015845)">
                    <path d="M544.5,101.899C540.575,101.687 538.612,103.443 538.574,99.497C538.501,91.828 537.678,6.08 538.79,3.63C539.353,2.39 561.783,1.273 561.912,4.431C561.965,5.718 561.929,96.978 561.939,97.5C561.947,97.861 562.019,101.43 560.596,101.809C560.113,101.938 550.435,101.899 544.5,101.899Z" style="fill:rgb(11,11,11);"/>
                </g>
            </g>
        </g>
        <g transform="matrix(1,0,0,1,-2201,850)">
            <g id="White-background" transform="matrix(0.280959,0,0,0.280959,3941.817351,289.179632)">
                <path d="M577.485,406.5C576.844,414.868 578.796,465.65 529.312,513.31C510.441,531.486 463.05,552.916 457.679,545.345C442.126,523.42 374.852,403.68 369.496,404.327C355.597,406.006 291.439,443.857 288.469,436.515C284.435,426.545 261.362,297.35 402.532,259.654C405.353,258.9 451.978,252.202 484.676,267.096C574.591,308.052 575.485,375.327 577.485,406.5Z" style="fill:url(#_Linear5);"/>
                <path d="M709.507,413.082C717.565,413.736 720.105,414.629 719.935,409.489C719.242,388.414 719.456,382.197 715.5,382.484C669.877,385.797 651.418,382.617 651.432,387.495C651.512,415.793 654.307,429.076 639.803,480.582C633.421,503.244 630.204,505.278 625.6,503.225C624.032,502.527 606.723,494.812 607.625,491.517C612.103,475.157 614.913,476.092 620.637,448.53C631.356,396.915 617.461,363.484 624.427,362.294C639.751,359.674 713.57,360.49 712.868,356.501C707.746,327.393 703.063,327.276 700.521,327.213C693.087,327.028 609.264,324.941 607.643,323.306C601.345,316.957 593.269,286.573 545.217,250.862C536.686,244.523 536.589,244.691 470.537,208.434C460.491,202.92 370.993,224.276 367.531,220.473C367.329,220.251 357.283,193.427 363.468,191.408C368.093,189.899 420.453,187.36 454.459,182.032C476.539,178.573 476.072,183.119 495.757,194.027C501.616,197.273 501.165,197.84 568.617,235.264C572.524,237.432 572.216,234.295 597.339,210.358C598.524,209.229 600.931,206.935 585.074,193.988C573.489,184.528 569.25,218.901 555.845,207.079C518.796,174.405 515.024,174.351 517.86,170.747C520.788,167.026 565.028,117.194 567.716,115.859C572.404,113.53 614.937,150.739 613.278,154.409C610.94,159.582 599.435,167.201 602.634,170.382C620.045,187.697 621.764,186.572 623.216,185.158C684.946,125.054 688.218,121.231 691.46,123.564C698.665,128.748 733.89,169.93 751.649,204.422C756.42,213.688 776.338,252.374 794.15,327.57C798.345,345.281 787.481,339.656 769.494,341.383C768.077,341.518 752.796,342.985 751.733,340.382C749.614,335.198 736.307,291.78 738.52,289.516C740.381,287.613 757.787,280.292 757.047,277.568C741.016,218.564 691.596,158.053 688.548,158.779C686.601,159.242 587.66,252.149 588.348,255.54C589.436,260.898 597.661,260.196 620.967,298.199C622.99,301.499 656.086,301.091 681.538,303.154C690.986,303.92 697.452,306.161 693.632,297.448C669.912,243.347 640.612,228.836 648.587,221.586C683.183,190.133 684.455,185.656 689.126,190.836C720.082,225.17 721.345,226.868 718.461,229.465C704.263,242.247 701.814,239.451 700.773,238.262C691.945,228.181 684.644,215.813 679.645,220.653C672.436,227.63 678.221,229.188 687.375,242.585C744.123,325.647 727.121,357.377 738.489,356.932C795.72,354.695 797.837,354.137 798.623,358.472C803.5,385.378 800.831,483.643 763.598,558.556C761.555,562.666 759.264,562.057 709.434,539.644C696.257,533.717 704.715,529.045 711.171,497.426C713.897,484.073 722.058,436.735 716.501,436.492C705.339,436.003 698.422,434.943 696.85,442.575C691.432,468.881 676.067,523.745 669.485,522.786C668.021,522.573 650.939,515.254 650.415,512.528C648.881,504.544 669.176,473.307 674.781,421.537C675.472,415.148 676.35,414.275 676.802,413.825C678.297,412.339 690.545,412.914 709.507,413.082ZM757.489,381.116C746.873,381.655 741.163,376.901 741.678,387.491C747.307,503.313 722.094,517.087 733.721,522.097C734.974,522.637 749.252,528.79 750.23,526.362C776.044,462.313 778.177,380.396 772.517,380.313C771.313,380.295 769.985,380.276 757.489,381.116Z" style="fill:url(#_Linear6);"/>
                <path d="M485.489,576.057C501.769,574.575 510.329,574.67 512.492,574.694C517.548,574.75 528.623,598.105 527.551,600.527C526.408,603.109 456.673,640.122 455.535,640.594C451.292,642.355 450.686,636.176 368.956,540.087C347.403,514.747 344.432,507.975 339.903,511.953C335.377,515.928 335.617,516.005 331.074,520.009C232.27,607.103 232.497,608.468 221.387,611.038C183.328,619.841 183.391,619.456 145.542,628.786C137.459,630.778 94.789,554.954 94.735,547.52C94.684,540.596 360.533,419.989 364.5,419.503C368.093,419.064 417.42,505.223 454.991,566.179C464.387,581.425 467.733,578.041 485.489,576.057ZM342.495,450.49C332.877,454.732 337.53,457.83 341.875,467.317C342.273,468.186 346.783,478.035 348.445,477.31C348.529,477.273 370.202,461.52 368.345,457.566C367.936,456.694 360.786,444.87 358.566,444.193C356.625,443.601 356.703,444.396 342.495,450.49ZM197.434,517.362C196.316,517.878 186.945,520.581 188.659,524.448C195.42,539.697 216.842,585.489 219.426,586.61C220.338,587.006 221.289,587.569 302.89,517.939C331.609,493.434 331.618,492.716 331.131,491.596C318.824,463.281 317.941,462.597 315.47,463.351C310.792,464.78 204.881,513.827 197.434,517.362ZM174.624,599.901C176.292,599.463 195.009,594.544 195.461,594.408C200.36,592.936 196.498,590.5 170.223,535.659C168.513,532.089 166.273,532.307 124.406,554.344C120.972,556.151 120.472,558.768 146.29,597.636C153.687,608.772 156.559,604.079 174.624,599.901ZM503.217,594.275C503.202,591.173 501.126,593.055 464.505,596.583C446.905,598.278 448.45,592.042 441.01,579.789C412.257,532.436 412.837,532.361 384.147,484.725C376.261,471.63 373.76,483.281 362.113,493.055C357.282,497.109 358.863,498.357 362.915,503.132C415.32,564.883 456.032,616.054 456.979,617.013C458.23,618.278 458.811,617.611 503.217,594.275Z" style="fill:url(#_Linear7);"/>
                <path d="M112.472,452.075C126.211,450.721 126.151,450.46 127.29,450.919C130.097,452.052 137.773,496.499 138.466,500.506C139.731,507.831 137.373,508.717 113.419,514.09C86.712,520.081 83.574,523.39 80.897,515.379C68.435,478.078 66.479,445.177 63.376,424.513C55.78,373.931 72.304,295.187 83.919,266.7C86.072,261.421 91.645,266.561 173.713,308.104C179.284,310.924 184.765,294.561 185.314,293.405C192.361,278.592 177.653,276.023 178.42,260.497C178.754,253.751 205.36,205.656 205.874,204.874C208.206,201.324 230.281,196.71 232.471,196.253C237.075,195.29 276.958,217.685 277.191,217.863C279.573,219.68 284.033,241.078 283.375,244.475C280.747,258.043 274.522,247.799 237.4,230.736C226.954,225.934 221.905,243.596 220.451,246.473C203.486,280.027 202.76,282.044 207.557,285.404C213.807,289.782 228.146,250.689 234.209,242.244C236.063,239.662 237.265,240.233 270.298,258.862C278.075,263.247 270.453,271.861 264.337,285.425C258.186,299.066 259.411,300.925 245.714,306.974C234.399,311.971 233.957,309.447 222.579,304.263C221.051,303.567 219.109,303.003 210.841,321.664C209.147,325.488 210.375,326.542 231.665,338.156C243.034,344.358 247.907,343.825 244.303,356.434C227.081,416.68 245.824,450.704 244.783,455.573C244.044,459.027 160.876,494.396 159.503,494.544C152.498,495.301 137.427,417.93 144.132,373.437C145.301,365.68 121.591,361.112 121.37,361.182C118.144,362.207 116.22,402.825 116.36,404.536C116.554,406.908 130.075,406.198 131.379,406.753C133.56,407.681 133.449,422.148 133.439,423.498C133.397,428.976 98.314,424.99 98.279,424.973C92.769,422.319 100.811,334.938 106.514,334.975C108.085,334.985 162.475,354.877 165.57,356.405C169.278,358.236 156.164,398.943 171.493,464.503C172.375,468.276 174.464,465.603 216.252,446.004C221.871,443.369 212.016,425.092 215.543,387.504C218.084,360.43 223.657,357.1 213.578,352.339C189.801,341.105 109.62,297.191 101.581,294.203C98.262,292.969 96.385,294.605 88.571,336.512C78.573,390.132 86.548,451.539 87.091,452.688C87.959,454.525 88.66,456.009 112.472,452.075ZM99.458,498.05C104.848,497.068 104.679,497.04 113.449,495.23C120.154,493.845 117.351,490.842 114.605,478.479C111.723,465.504 106.559,471.491 93.49,473.435C87.613,474.31 90.766,476.799 92.092,482.581C94.822,494.483 92.779,497.105 99.458,498.05Z" style="fill:url(#_Linear8);"/>
                <path d="M394.518,771.106C250.846,757.951 155.781,649.903 158.678,645.613C161.779,641.02 233.593,625.153 234.515,625.152C237.141,625.148 282.838,681.375 339.409,705.699C433.476,746.143 473.626,721.337 485.738,729.229C486.611,729.798 494.303,762.139 493.758,764.563C492.634,769.565 437.283,775.494 394.518,771.106Z" style="fill:url(#_Linear9);"/>
                <path d="M330.391,30.186C334.159,29.619 334.219,29.206 335.14,29.955C337.272,31.688 342.888,62.549 342.888,62.551C342.897,64.58 330.533,68.796 329.395,69.184C264.621,91.273 209.724,144.301 183.498,195.499C147.309,266.149 160.221,284.295 146.775,277.02C100.786,252.136 100.43,252.778 96.794,250.053C95.292,248.927 89.385,244.498 99.985,226.799C119.918,193.513 169.521,75.568 330.391,30.186Z" style="fill:url(#_Linear10);"/>
                <path d="M483.523,19.062C500.268,21.876 528.853,23.205 590.313,50.93C639.332,73.043 677.039,108.085 676.128,110.398C675.625,111.672 637.14,153.285 632.729,150.004C620.248,140.719 559.641,48.362 401.514,54.976C383.711,55.721 377.936,62.201 375.217,48.568C370.541,25.121 367.887,21.426 376.558,19.796C414.347,12.692 475.002,18.277 483.523,19.062Z" style="fill:url(#_Linear11);"/>
                <path d="M531.444,758.202C524.443,758.063 525.91,752.044 521.382,734.529C520.501,731.121 515.528,721.2 522.517,718.537C525.654,717.342 637.558,686.124 692.332,561.427C696.654,551.59 705.312,558.644 726.404,567.721C744.493,575.507 755.872,575.427 748.256,588.369C667.549,725.522 533.619,757.53 531.444,758.202Z" style="fill:url(#_Linear12);"/>
                <path d="M647.497,532.505C653.529,536.583 658.264,538.086 650.33,547.358C646.054,552.355 597.525,609.066 589.856,603.034C589.509,602.761 558.347,565.121 558.668,561.518C559.121,556.434 566.023,561.301 599.688,512.649C602.72,508.268 622.034,518.731 619.309,524.403C611.83,539.973 592.365,560.782 589.678,563.655C587.164,566.343 591.774,575.732 596.276,571.274C599.171,568.409 603.037,564.582 632.084,535.086C638.459,528.612 639.625,527.932 647.497,532.505Z" style="fill:url(#_Linear13);"/>
                <path d="M553.501,103.959C554.023,104.074 560.064,105.414 559.211,107.424C558.925,108.099 553.051,115.278 547.455,121.456C509.286,163.596 509.563,165.595 506.562,164.317C498.483,160.877 502.543,158.154 501.349,146.511C499.881,132.19 503.662,132.853 523.202,111.213C534.475,98.728 536.825,103.44 553.501,103.959Z" style="fill:url(#_Linear14);"/>
            </g>
        </g>
    </g>
    <defs>
        <linearGradient id="_Linear1" x1="0" y1="0" x2="1" y2="0" gradientUnits="userSpaceOnUse" gradientTransform="matrix(632.042564,0,0,632.042564,160.712716,265.045544)"><stop offset="0" style="stop-color:rgb(218,18,26);stop-opacity:1"/><stop offset="1" style="stop-color:rgb(138,0,6);stop-opacity:1"/></linearGradient>
        <linearGradient id="_Linear2" x1="0" y1="0" x2="1" y2="0" gradientUnits="userSpaceOnUse" gradientTransform="matrix(632.042564,0,0,632.042564,160.712716,265.045544)"><stop offset="0" style="stop-color:rgb(218,18,26);stop-opacity:1"/><stop offset="1" style="stop-color:rgb(138,0,6);stop-opacity:1"/></linearGradient>
        <linearGradient id="_Linear3" x1="0" y1="0" x2="1" y2="0" gradientUnits="userSpaceOnUse" gradientTransform="matrix(632.042564,0,0,632.042564,160.712716,265.045544)"><stop offset="0" style="stop-color:rgb(218,18,26);stop-opacity:1"/><stop offset="1" style="stop-color:rgb(138,0,6);stop-opacity:1"/></linearGradient>
        <linearGradient id="_Linear4" x1="0" y1="0" x2="1" y2="0" gradientUnits="userSpaceOnUse" gradientTransform="matrix(632.042564,0,0,632.042564,160.712716,265.045544)"><stop offset="0" style="stop-color:rgb(218,18,26);stop-opacity:1"/><stop offset="1" style="stop-color:rgb(138,0,6);stop-opacity:1"/></linearGradient>
        <linearGradient id="_Linear5" x1="0" y1="0" x2="1" y2="0" gradientUnits="userSpaceOnUse" gradientTransform="matrix(622.975882,357.257598,-357.257598,622.975882,142.987902,214.536406)"><stop offset="0" style="stop-color:rgb(218,18,26);stop-opacity:1"/><stop offset="1" style="stop-color:rgb(111,0,0);stop-opacity:1"/></linearGradient>
        <linearGradient id="_Linear6" x1="0" y1="0" x2="1" y2="0" gradientUnits="userSpaceOnUse" gradientTransform="matrix(622.975882,357.257598,-357.257598,622.975882,142.987902,214.536406)"><stop offset="0" style="stop-color:rgb(218,18,26);stop-opacity:1"/><stop offset="1" style="stop-color:rgb(111,0,0);stop-opacity:1"/></linearGradient>
        <linearGradient id="_Linear7" x1="0" y1="0" x2="1" y2="0" gradientUnits="userSpaceOnUse" gradientTransform="matrix(622.975882,357.257598,-357.257598,622.975882,142.987902,214.536406)"><stop offset="0" style="stop-color:rgb(218,18,26);stop-opacity:1"/><stop offset="1" style="stop-color:rgb(111,0,0);stop-opacity:1"/></linearGradient>
        <linearGradient id="_Linear8" x1="0" y1="0" x2="1" y2="0" gradientUnits="userSpaceOnUse" gradientTransform="matrix(622.975882,357.257598,-357.257598,622.975882,142.987902,214.536406)"><stop offset="0" style="stop-color:rgb(218,18,26);stop-opacity:1"/><stop offset="1" style="stop-color:rgb(111,0,0);stop-opacity:1"/></linearGradient>
        <linearGradient id="_Linear9" x1="0" y1="0" x2="1" y2="0" gradientUnits="userSpaceOnUse" gradientTransform="matrix(622.975882,357.257598,-357.257598,622.975882,142.987902,214.536406)"><stop offset="0" style="stop-color:rgb(218,18,26);stop-opacity:1"/><stop offset="1" style="stop-color:rgb(111,0,0);stop-opacity:1"/></linearGradient>
        <linearGradient id="_Linear10" x1="0" y1="0" x2="1" y2="0" gradientUnits="userSpaceOnUse" gradientTransform="matrix(622.975882,357.257598,-357.257598,622.975882,142.987902,214.536406)"><stop offset="0" style="stop-color:rgb(218,18,26);stop-opacity:1"/><stop offset="1" style="stop-color:rgb(111,0,0);stop-opacity:1"/></linearGradient>
        <linearGradient id="_Linear11" x1="0" y1="0" x2="1" y2="0" gradientUnits="userSpaceOnUse" gradientTransform="matrix(622.975882,357.257598,-357.257598,622.975882,142.987902,214.536406)"><stop offset="0" style="stop-color:rgb(218,18,26);stop-opacity:1"/><stop offset="1" style="stop-color:rgb(111,0,0);stop-opacity:1"/></linearGradient>
        <linearGradient id="_Linear12" x1="0" y1="0" x2="1" y2="0" gradientUnits="userSpaceOnUse" gradientTransform="matrix(622.975882,357.257598,-357.257598,622.975882,142.987902,214.536406)"><stop offset="0" style="stop-color:rgb(218,18,26);stop-opacity:1"/><stop offset="1" style="stop-color:rgb(111,0,0);stop-opacity:1"/></linearGradient>
        <linearGradient id="_Linear13" x1="0" y1="0" x2="1" y2="0" gradientUnits="userSpaceOnUse" gradientTransform="matrix(622.975882,357.257598,-357.257598,622.975882,142.987902,214.536406)"><stop offset="0" style="stop-color:rgb(218,18,26);stop-opacity:1"/><stop offset="1" style="stop-color:rgb(111,0,0);stop-opacity:1"/></linearGradient>
        <linearGradient id="_Linear14" x1="0" y1="0" x2="1" y2="0" gradientUnits="userSpaceOnUse" gradientTransform="matrix(622.975882,357.257598,-357.257598,622.975882,142.987902,214.536406)"><stop offset="0" style="stop-color:rgb(218,18,26);stop-opacity:1"/><stop offset="1" style="stop-color:rgb(111,0,0);stop-opacity:1"/></linearGradient>
    </defs>
</svg>
